<?xml version="1.0" encoding="utf-8"?>
<!-- Generator: Adobe Illustrator 14.0.0, SVG Export Plug-In . SVG Version: 6.00 Build 43363)  -->
<!DOCTYPE svg PUBLIC "-//W3C//DTD SVG 1.1//EN" "http://www.w3.org/Graphics/SVG/1.1/DTD/svg11.dtd">
<svg version="1.1" xmlns="http://www.w3.org/2000/svg" xmlns:xlink="http://www.w3.org/1999/xlink" x="0px" y="0px"
	 width="307.379px" height="307.379px" viewBox="0 0 307.379 307.379" enable-background="new 0 0 307.379 307.379"
	 xml:space="preserve">
<g id="Layer_1">
	<g>
		<path fill="#FFFFFF" d="M197.84,79.93l22.783-12.077c-10.887-7.737-23.135-13.683-36.338-17.36
			c0.039,0.639,0.064,1.282,0.064,1.93c0,7.281-2.464,13.983-6.596,19.332C184.811,73.729,191.537,76.489,197.84,79.93z"/>
		<path fill="#FFFFFF" d="M216.582,93.316c5.838,5.314,11.037,11.317,15.434,17.908c4.303-6.258,10.795-10.89,18.374-12.791
			C242.46,86.585,232.425,76.274,220.835,68L216.582,93.316z"/>
		<path fill="#FFFFFF" d="M83.9,68.448l21.849,11.392c6.735-3.658,13.943-6.555,21.528-8.532
			c-3.925-5.272-6.249-11.807-6.249-18.885c0-0.648,0.025-1.291,0.064-1.93C107.547,54.266,94.997,60.414,83.9,68.448z"/>
		<path fill="#FFFFFF" d="M72.329,109.81c4.404-6.356,9.566-12.142,15.329-17.265l-4.167-23.808
			C72.342,76.882,62.68,86.942,54.989,98.433C61.984,100.188,68.051,104.271,72.329,109.81z"/>
		<path fill="#FFFFFF" d="M41.354,199.089l15.719-15.428c-1.224-6.136-1.884-12.476-1.884-18.972c0-1.654,0.055-3.295,0.137-4.929
			c-2.575,0.677-5.277,1.04-8.064,1.04c-4.231,0-8.265-0.836-11.954-2.342c-0.076,1.734-0.118,3.477-0.118,5.23
			c0,27.568,9.498,52.916,25.396,72.958c3.437-5.708,8.622-10.244,14.815-12.864c-5.112-6.59-9.373-13.869-12.657-21.661
			L41.354,199.089z"/>
		<path fill="#FFFFFF" d="M270.071,158.457c-3.689,1.506-7.724,2.342-11.954,2.342c-3.534,0-6.93-0.588-10.104-1.656
			c0.104,1.838,0.176,3.684,0.176,5.547c0,5.817-0.529,11.51-1.517,17.043l17.144,16.597l-23.027,3.427
			c-3.206,7.693-7.361,14.892-12.35,21.427c6.872,2.49,12.637,7.291,16.354,13.465c15.897-20.042,25.396-45.39,25.396-72.958
			C270.189,161.936,270.146,160.191,270.071,158.457z"/>
		<path fill="#FFFFFF" d="M162.115,260.608l-9.254,18.915l-9.298-18.679c-8.456-0.707-16.602-2.5-24.297-5.244
			c-0.574,6.938-3.382,13.236-7.706,18.182c12.802,4.785,26.659,7.407,41.129,7.407s28.328-2.622,41.13-7.407
			c-4.474-5.115-7.327-11.68-7.761-18.9C178.489,257.768,170.459,259.71,162.115,260.608z"/>
	</g>
	<circle fill="#FFFFFF" cx="87.724" cy="252.957" r="28.635"/>
	<circle fill="#FFFFFF" cx="217.656" cy="252.957" r="28.634"/>
	<circle fill="#FFFFFF" cx="258.117" cy="129.139" r="28.634"/>
	<circle fill="#FFFFFF" cx="152.689" cy="52.422" r="28.634"/>
	<circle fill="#FFFFFF" cx="47.261" cy="129.139" r="28.634"/>
</g>
<g id="Layer_2">
</g>
</svg>
